<svg preserveAspectRatio="none" width="100%" height="100%" overflow="visible" style="display: block;" viewBox="0 0 32 32" fill="none" xmlns="http://www.w3.org/2000/svg">
<g id="Lucid/arrow-right">
<path id="Union" d="M16.8483 26.1823C16.3797 26.6506 15.6196 26.6508 15.151 26.1823C14.6825 25.7138 14.6827 24.9537 15.151 24.485L16.8483 26.1823ZM26.1823 15.151C26.6508 15.6196 26.6506 16.3797 26.1823 16.8483L16.8483 26.1823L16.0007 25.3327L15.151 24.485L22.4362 17.1999H6.66667C6.00414 17.1999 5.4678 16.6631 5.46745 16.0007C5.46745 15.3379 6.00393 14.7995 6.66667 14.7995H22.4362L15.151 7.51432L16.0007 6.66667L16.8483 5.81901L26.1823 15.151ZM15.151 5.81901C15.6197 5.35038 16.3797 5.35038 16.8483 5.81901L15.151 7.51432C14.6833 7.04586 14.6833 6.28748 15.151 5.81901Z" fill="var(--fill-0, white)"/>
</g>
</svg>
