<svg preserveAspectRatio="none" width="100%" height="100%" overflow="visible" style="display: block;" viewBox="0 0 32 32" fill="none" xmlns="http://www.w3.org/2000/svg">
<g id="Lucid/app-window-mac">
<path id="Union" d="M28.1335 7.99935C28.1331 7.18963 27.4765 6.53255 26.6667 6.53255H5.33268C4.52318 6.5329 3.86624 7.18985 3.86589 7.99935V23.9993C3.86589 24.8091 4.52296 25.4658 5.33268 25.4661H26.6667C27.4767 25.4661 28.1335 24.8094 28.1335 23.9993V7.99935ZM8.01237 9.46615L8.25456 9.49154C8.80162 9.60324 9.21354 10.0872 9.21354 10.6673C9.21323 11.2472 8.80155 11.7315 8.25456 11.8431L8.01237 11.8665H8.00065C7.33813 11.8665 6.79983 11.3298 6.79948 10.6673C6.79948 10.0046 7.33791 9.46615 8.00065 9.46615H8.01237ZM13.3464 9.46615L13.5885 9.49154C14.1353 9.60348 14.5475 10.0875 14.5475 10.6673C14.5472 11.247 14.1352 11.7313 13.5885 11.8431L13.3464 11.8665H13.3327C12.6705 11.8662 12.1338 11.3295 12.1335 10.6673C12.1335 10.0048 12.6702 9.4665 13.3327 9.46615H13.3464ZM18.6803 9.46615L18.9225 9.49154C19.469 9.60372 19.8796 10.0877 19.8796 10.6673C19.8792 11.2468 19.4689 11.7311 18.9225 11.8431L18.6803 11.8665H18.6667C18.0041 11.8665 17.4678 11.3298 17.4674 10.6673C17.4674 10.0046 18.0039 9.46615 18.6667 9.46615H18.6803ZM30.5339 23.9993C30.5339 26.1348 28.8022 27.8665 26.6667 27.8665H5.33268C3.19748 27.8662 1.46745 26.1346 1.46745 23.9993V7.99935C1.4678 5.86436 3.1977 4.13447 5.33268 4.13411H26.6667C28.802 4.13412 30.5335 5.86415 30.5339 7.99935V23.9993Z" fill="var(--fill-0, #35353C)"/>
</g>
</svg>
